<mxfile host="Electron" modified="2024-04-02T07:55:18.345Z" agent="Mozilla/5.0 (Windows NT 10.0; Win64; x64) AppleWebKit/537.36 (KHTML, like Gecko) draw.io/24.1.0 Chrome/120.0.6099.109 Electron/28.1.0 Safari/537.36" etag="my97-V7YP14LwG0BzuAi" version="24.1.0" type="device">
  <diagram name="Page-1" id="3HNNUvmI26e6U34l2Z3O">
    <mxGraphModel dx="1137" dy="883" grid="1" gridSize="10" guides="1" tooltips="1" connect="1" arrows="1" fold="1" page="1" pageScale="1" pageWidth="980" pageHeight="690" math="0" shadow="0">
      <root>
        <mxCell id="0" />
        <mxCell id="1" parent="0" />
        <mxCell id="q-ZejeubLX4BjsPiB8f2-21" value="" style="rounded=1;whiteSpace=wrap;html=1;fillColor=#333333;arcSize=5;fontColor=#2a2b2e;glass=0;shadow=0;strokeColor=none;" parent="1" vertex="1">
          <mxGeometry x="171" y="94.26" width="638.61" height="425.74" as="geometry" />
        </mxCell>
        <mxCell id="q-ZejeubLX4BjsPiB8f2-1" value="7" style="verticalLabelPosition=middle;verticalAlign=middle;html=1;shape=mxgraph.infographic.circularCallout;dy=15;fillColor=#00CC66;strokeColor=none;labelPosition=center;align=center;fontColor=#00CC66;fontStyle=1;fontSize=24;whiteSpace=wrap;fontFamily=Aptos;rotation=-180;" parent="1" vertex="1">
          <mxGeometry x="420" y="140" width="80" height="80" as="geometry" />
        </mxCell>
        <mxCell id="q-ZejeubLX4BjsPiB8f2-12" value="8" style="verticalLabelPosition=middle;verticalAlign=middle;html=1;shape=mxgraph.infographic.circularCallout;dy=15;fillColor=#FFE599;strokeColor=none;labelPosition=center;align=center;fontColor=#FFE599;fontStyle=1;fontSize=24;whiteSpace=wrap;fontFamily=Aptos;rotation=-60;" parent="1" vertex="1">
          <mxGeometry x="340" y="240" width="80" height="80" as="geometry" />
        </mxCell>
        <mxCell id="q-ZejeubLX4BjsPiB8f2-13" value="1" style="verticalLabelPosition=middle;verticalAlign=middle;html=1;shape=mxgraph.infographic.circularCallout;dy=15;fillColor=#00CC66;strokeColor=none;labelPosition=center;align=center;fontColor=#00CC66;fontStyle=1;fontSize=24;whiteSpace=wrap;fontFamily=Aptos;rotation=90;" parent="1" vertex="1">
          <mxGeometry x="250" y="140" width="80" height="80" as="geometry" />
        </mxCell>
        <mxCell id="q-ZejeubLX4BjsPiB8f2-14" value="3" style="verticalLabelPosition=middle;verticalAlign=middle;html=1;shape=mxgraph.infographic.circularCallout;dy=15;fillColor=#00CC66;strokeColor=none;labelPosition=center;align=center;fontStyle=1;fontSize=24;whiteSpace=wrap;fontColor=#00CC66;fontFamily=Aptos;rotation=10;" parent="1" vertex="1">
          <mxGeometry x="520" y="390" width="80" height="80" as="geometry" />
        </mxCell>
        <mxCell id="q-ZejeubLX4BjsPiB8f2-15" value="9" style="verticalLabelPosition=middle;verticalAlign=middle;html=1;shape=mxgraph.infographic.circularCallout;dy=15;fillColor=#00CC66;strokeColor=none;labelPosition=center;align=center;fontColor=#00CC66;fontStyle=1;fontSize=24;whiteSpace=wrap;fontFamily=Aptos;rotation=-80;" parent="1" vertex="1">
          <mxGeometry x="610" y="410" width="80" height="80" as="geometry" />
        </mxCell>
        <mxCell id="Ktv8eCCp_lJ064TTi4eM-1" value="6" style="verticalLabelPosition=middle;verticalAlign=middle;html=1;shape=mxgraph.infographic.circularCallout;dy=15;fillColor=#FFB570;strokeColor=none;labelPosition=center;align=center;fontColor=#FFB570;fontStyle=1;fontSize=24;whiteSpace=wrap;fontFamily=Aptos;rotation=-70;" vertex="1" parent="1">
          <mxGeometry x="640" y="267.13" width="80" height="80" as="geometry" />
        </mxCell>
        <mxCell id="Ktv8eCCp_lJ064TTi4eM-2" value="8" style="verticalLabelPosition=middle;verticalAlign=middle;html=1;shape=mxgraph.infographic.circularCallout;dy=15;fillColor=#FFE599;strokeColor=none;labelPosition=center;align=center;fontColor=#FFE599;fontStyle=1;fontSize=24;whiteSpace=wrap;fontFamily=Aptos;rotation=105;" vertex="1" parent="1">
          <mxGeometry x="580" y="147.13" width="80" height="80" as="geometry" />
        </mxCell>
        <mxCell id="Ktv8eCCp_lJ064TTi4eM-4" value="7" style="verticalLabelPosition=middle;verticalAlign=middle;html=1;shape=mxgraph.infographic.circularCallout;dy=15;fillColor=#00CC66;strokeColor=none;labelPosition=center;align=center;fontColor=#00CC66;fontStyle=1;fontSize=24;whiteSpace=wrap;fontFamily=Aptos;rotation=15;" vertex="1" parent="1">
          <mxGeometry x="240" y="267.13" width="80" height="80" as="geometry" />
        </mxCell>
        <mxCell id="Ktv8eCCp_lJ064TTi4eM-5" value="0" style="verticalLabelPosition=middle;verticalAlign=middle;html=1;shape=mxgraph.infographic.circularCallout;dy=15;fillColor=#00CC66;strokeColor=none;labelPosition=center;align=center;fontColor=#00CC66;fontStyle=1;fontSize=24;whiteSpace=wrap;fontFamily=Aptos;rotation=-105;" vertex="1" parent="1">
          <mxGeometry x="440" y="300" width="80" height="80" as="geometry" />
        </mxCell>
        <mxCell id="Ktv8eCCp_lJ064TTi4eM-6" value="4" style="verticalLabelPosition=middle;verticalAlign=middle;html=1;shape=mxgraph.infographic.circularCallout;dy=15;fillColor=#00CC66;strokeColor=none;labelPosition=center;align=center;fontColor=#00CC66;fontStyle=1;fontSize=24;whiteSpace=wrap;fontFamily=Aptos;rotation=15;" vertex="1" parent="1">
          <mxGeometry x="550" y="237.13" width="80" height="80" as="geometry" />
        </mxCell>
        <mxCell id="Ktv8eCCp_lJ064TTi4eM-7" value="5" style="verticalLabelPosition=middle;verticalAlign=middle;html=1;shape=mxgraph.infographic.circularCallout;dy=15;fillColor=#00CC66;strokeColor=none;labelPosition=center;align=center;fontColor=#00CC66;fontStyle=1;fontSize=24;whiteSpace=wrap;fontFamily=Aptos;rotation=-30;" vertex="1" parent="1">
          <mxGeometry x="320" y="360" width="80" height="80" as="geometry" />
        </mxCell>
        <mxCell id="Ktv8eCCp_lJ064TTi4eM-8" value="7" style="verticalLabelPosition=middle;verticalAlign=middle;html=1;shape=mxgraph.infographic.circularCallout;dy=15;fillColor=#00CC66;strokeColor=none;labelPosition=center;align=center;fontColor=#00CC66;fontStyle=1;fontSize=24;whiteSpace=wrap;fontFamily=Aptos;rotation=-165;" vertex="1" parent="1">
          <mxGeometry x="670" y="167.13" width="80" height="80" as="geometry" />
        </mxCell>
      </root>
    </mxGraphModel>
  </diagram>
</mxfile>
